<?xml version="1.0" encoding="UTF-8" standalone="no"?>
<!-- Generator: Adobe Illustrator 16.0.0, SVG Export Plug-In . SVG Version: 6.00 Build 0)  -->

<svg
   version="1.1"
   x="0px"
   y="0px"
   width="359.949px"
   height="359.958px"
   viewBox="0 0 359.949 359.958"
   enable-background="new 0 0 359.949 359.958"
   xml:space="preserve"
   id="svg17"
   sodipodi:docname="logo-gdg-pisa copy_Quadrato (con scritta).svg"
   inkscape:version="1.3.1 (9b9bdc1480, 2023-11-25, custom)"
   xmlns:inkscape="http://www.inkscape.org/namespaces/inkscape"
   xmlns:sodipodi="http://sodipodi.sourceforge.net/DTD/sodipodi-0.dtd"
   xmlns="http://www.w3.org/2000/svg"
   xmlns:svg="http://www.w3.org/2000/svg"><defs
   id="defs17" /><sodipodi:namedview
   id="namedview17"
   pagecolor="#ffffff"
   bordercolor="#000000"
   borderopacity="0.25"
   inkscape:showpageshadow="2"
   inkscape:pageopacity="0.0"
   inkscape:pagecheckerboard="0"
   inkscape:deskcolor="#d1d1d1"
   showgrid="false"
   inkscape:zoom="1.587247"
   inkscape:cx="146.48003"
   inkscape:cy="192.78663"
   inkscape:window-width="1920"
   inkscape:window-height="1011"
   inkscape:window-x="0"
   inkscape:window-y="32"
   inkscape:window-maximized="1"
   inkscape:current-layer="tavola_2" />
<g
   id="grafica_dietro">
	<g
   id="paesaggio_cipressi3">
	</g>
	<g
   id="paesaggio_cipressi2">
	</g>
	<g
   id="paesaggio_cipressi1">
	</g>
	<g
   id="torre_vet">
	</g>
	<g
   id="curve_nuove">
	</g>
</g>
<g
   id="google">
</g>
<g
   id="gdg">
</g>
<g
   id="tavola_3">
	<g
   id="giallo-verde">
	</g>
	<g
   id="rosso-blu">
	</g>
</g>
<g
   id="tavola_2"
   transform="matrix(0.9076932,0,0,0.9076932,8.0226086,26.827169)">
	<path
   fill="#a7a9ac"
   d="m 119.46,234.526 c 0,0 34.019,-1.738 46.615,-1.587 10.779,0.129 42.209,5.698 42.209,5.698 0,0 2.264,-11.922 -3.059,-12.904 l 0.969,-16.5 c 0,0 7.348,-2.676 1.795,-9.57 0,0 6.674,-5.945 -0.826,-11.359 l 1.887,-13.857 c 0,0 5.855,-3.875 0.531,-8.311 l 2.176,-12.066 c 0,0 8.098,-4.682 1.693,-9.848 l 1.697,-13.055 c 0,0 4.842,-3.938 -0.242,-7.879 l 0.672,-12.602 c 0,0 6.588,-4.883 1.223,-8.912 l 0.775,-14.191 c 0,0 9.422,-3.693 2.414,-7.884 l -0.324,-15.267 c 0,0 6.127,-2.215 2.971,-7.388 l -9.107,-3.746 c 0,0 0.533,-16.931 2.232,-18.552 4.229,-4.028 3.256,-13.162 3.256,-13.162 l -56.381,-7.142 c 0,0 -3.623,12.56 0.008,15.021 0,0 -1.459,17.975 -1.459,17.979 l -12.334,2.708 c 0,0 -2.662,3.939 1.695,5.91 l -0.973,16.009 c 0,0 -5.564,3.443 -0.969,7.879 l -2.176,14.281 c 0,0 -7.014,1.727 -2.898,7.391 l -0.244,13.787 c 0,0 -8.713,3.449 -2.42,9.111 l -1.455,12.559 c 0,0 -5.561,2.709 -0.969,7.389 l -0.727,12.805 c 0,0 -6.77,2.461 -1.932,7.633 l -1.934,16.254 c 0,0 -6.584,2.469 -3.199,10.1 0,0 -5.328,4.01 -1.404,8.861 l -3.148,19.947 c -10.327,10.636 -6.638,14.46 -6.638,14.46 z"
   id="path1" />
	<g
   id="g2">
		<path
   fill="#f4bf18"
   d="m 255.681,195.681 c 3.405,0 6.855,-0.867 10.017,-2.693 l 72.71,-40.694 -51.357,-17.985 -41.424,23.916 c -9.6,5.542 -12.889,17.818 -7.347,27.418 3.717,6.438 10.464,10.038 17.401,10.038 z"
   id="path2" />
	</g>
	<g
   id="g3">
		<path
   fill="#279d4d"
   d="m 326.129,154.986 c 6.937,0 15.907,-3.599 19.625,-10.039 5.542,-9.6 2.253,-21.875 -7.347,-27.417 l -72.71,-40.696 c -9.601,-5.542 -21.874,-2.254 -27.418,7.347 -5.542,9.599 -2.253,21.874 7.347,27.417 l 70.485,40.696 c 3.161,1.824 6.613,2.692 10.018,2.692 z"
   id="path3" />
	</g>
	<g
   id="g4">
		<path
   fill="#e5472d"
   d="m 69.746,134.911 40.792,-23.551 c 9.601,-5.542 12.89,-17.818 7.347,-27.417 -5.542,-9.6 -17.816,-12.89 -27.417,-7.347 l -70.486,40.696 z"
   id="path4" />
	</g>
	<g
   id="g5">
		<path
   fill="#577abc"
   d="m 100.483,195.443 c 6.938,0 13.684,-3.601 17.401,-10.039 5.543,-9.6 2.254,-21.876 -7.347,-27.418 L 40.051,117.292 c -9.601,-5.546 -19.65,-2.253 -25.193,7.347 -5.542,9.601 -4.478,21.875 5.123,27.417 l 70.486,40.695 c 3.161,1.825 6.612,2.692 10.016,2.692 z"
   id="path5" />
	</g>
	<g
   id="g8">
		<path
   fill="#a7a9ac"
   d="m 323.57,186.018 c 0,0 7.135,29.145 0.968,30.232 l 0.121,5.683 h -1.089 v -5.804 c 0,0 -6.167,2.903 0,-30.111"
   id="path6" />
		<g
   id="g7">
			<path
   fill="#a7a9ac"
   d="m 323.57,188.518 c 0.987,4.061 1.794,8.176 2.441,12.304 0.251,1.602 0.478,3.207 0.653,4.819 0.115,1.062 0.146,2.152 0.285,3.205 0.304,2.284 0.575,-1.781 -0.006,0.117 -0.532,1.738 -0.206,4.154 -2.406,4.787 -0.246,0.07 -0.022,4.231 -0.013,4.658 0.04,1.895 0.08,3.789 0.121,5.684 0.004,-1.553 0.008,-3.106 0.013,-4.659 -0.363,0 -0.727,0 -1.089,0 0.009,0.834 0.017,1.667 0.024,2.5 0,-1.935 0,-3.869 0,-5.804 0,-0.188 -0.147,-2.446 -0.024,-2.5 -1.094,0.479 -1.758,-1.069 -2.066,-1.79 -0.298,-0.695 -0.378,-1.528 -0.481,-2.271 -0.093,-0.669 -0.094,-1.342 -0.159,-2.012 0.343,3.524 0.021,0.714 0.096,-0.24 0.496,-6.321 1.468,-12.562 2.611,-18.798 0.297,-1.618 -0.295,-3.396 0,-5 -1.785,9.733 -3.476,19.876 -2.665,29.827 0.074,0.909 0.48,6.24 2.665,5.284 -0.009,-0.833 -0.017,-1.667 -0.025,-2.5 0,1.935 0,3.869 0,5.804 0,0.143 -0.004,2.5 0.025,2.5 0.362,0 0.726,0 1.089,0 0.045,0 0.021,-4.281 0.013,-4.658 -0.041,-1.895 -0.081,-3.789 -0.122,-5.684 -0.004,1.553 -0.008,3.105 -0.012,4.659 4.177,-1.2 2.602,-12.438 2.36,-15.648 -0.494,-6.583 -1.77,-13.173 -3.328,-19.584 0.38,1.565 -0.384,3.419 0,5 z"
   id="path7" />
		</g>
	</g>
	<g
   id="g10">
		<path
   fill="#a7a9ac"
   d="m 314.127,175.633 c 0,0 8.566,34.99 1.162,36.297 l 0.146,6.825 h -1.308 v -6.971 c 0,0.001 -7.404,3.486 0,-36.151"
   id="path8" />
		<g
   id="g9">
			<path
   fill="#a7a9ac"
   d="m 314.127,178.133 c 1.225,5.027 2.219,10.126 3.006,15.239 0.297,1.931 0.563,3.868 0.765,5.812 0.126,1.212 0.149,2.47 0.307,3.672 0.298,2.266 0.449,-2.174 -0.018,0.909 -0.309,2.041 -0.488,5.019 -2.897,5.665 -0.233,0.062 -0.021,4.237 -0.013,4.658 0.049,2.275 0.098,4.55 0.146,6.825 0.005,-1.553 0.009,-3.105 0.013,-4.658 -0.436,0 -0.871,0 -1.308,0 0.009,0.833 0.017,1.666 0.025,2.5 0,-2.324 0,-4.647 0,-6.971 0,-0.188 -0.149,-2.444 -0.025,-2.5 -1.298,0.576 -2.134,-1.282 -2.479,-2.148 -0.334,-0.84 -0.452,-1.783 -0.576,-2.674 -0.074,-0.541 -0.199,-3.618 -0.195,-1.396 -0.002,-0.969 0.085,-1.946 0.15,-2.911 0.503,-7.397 1.759,-14.739 3.099,-22.022 0.298,-1.618 -0.295,-3.396 0,-5 -2.105,11.444 -4.206,23.46 -3.174,35.168 0.094,1.064 0.656,7.101 3.174,5.983 -0.008,-0.833 -0.017,-1.666 -0.024,-2.5 0,2.323 0,4.646 0,6.971 0,0.142 -0.004,2.5 0.024,2.5 0.437,0 0.872,0 1.308,0 0.046,0 0.021,-4.282 0.013,-4.659 -0.049,-2.274 -0.097,-4.55 -0.146,-6.825 -0.004,1.554 -0.008,3.106 -0.013,4.659 4.896,-1.314 3.11,-14.183 2.826,-17.873 -0.605,-7.876 -2.12,-15.754 -3.988,-23.424 0.381,1.565 -0.385,3.419 0,5 z"
   id="path9" />
		</g>
	</g>
	<g
   id="g12">
		<path
   fill="#a7a9ac"
   d="m 304.438,183.627 c 0,0 7.943,26.212 1.077,27.19 l 0.135,5.111 -1.212,0.652 v -5.221 c 0,0.002 -6.866,1.96 0,-27.732"
   id="path10" />
		<g
   id="g11">
			<path
   fill="#a7a9ac"
   d="m 304.438,186.127 c 1.119,3.719 2.042,7.516 2.771,11.329 0.271,1.419 0.514,2.844 0.702,4.276 0.102,0.774 0.18,1.548 0.262,2.324 0.243,2.3 -0.46,1.324 0.035,-0.035 -0.646,1.772 -0.42,3.748 -2.692,4.296 -0.224,0.054 -0.019,4.45 -0.007,4.91 0.045,1.704 0.09,3.408 0.135,5.112 0.003,-1.638 0.005,-3.274 0.007,-4.911 -0.404,0.218 -0.808,0.436 -1.212,0.652 0.009,0.834 0.017,1.667 0.025,2.5 0,-1.74 0,-3.48 0,-5.221 0,-0.155 -0.089,-2.483 -0.025,-2.5 -1.134,0.29 -1.867,-1.001 -2.267,-1.812 -0.317,-0.644 -0.432,-1.415 -0.553,-2.113 -0.118,-0.686 -0.144,-1.377 -0.199,-2.071 0.206,2.567 0.058,0.751 0.222,-0.96 0.509,-5.319 1.618,-10.571 2.796,-15.776 0.36,-1.593 -0.357,-3.424 0,-5 -0.094,0.412 -6.73,34.452 0,32.733 -0.008,-0.833 -0.017,-1.666 -0.025,-2.5 0,1.74 0,3.48 0,5.221 0,0.21 0.177,2.419 0.025,2.5 0.404,-0.217 0.808,-0.435 1.212,-0.652 0.396,-0.213 0.021,-4.336 0.007,-4.91 -0.045,-1.704 -0.09,-3.408 -0.135,-5.112 -0.002,1.638 -0.005,3.274 -0.007,4.911 4.212,-1.015 2.93,-10.178 2.726,-13.361 -0.405,-6.353 -1.973,-12.745 -3.803,-18.829 0.458,1.516 -0.462,3.461 0,4.999 z"
   id="path11" />
		</g>
	</g>
	<g
   id="g14">
		<g
   id="g13">
			<path
   fill="#a8a9ad"
   d="m 55.553,247.123 c 8.045,-4.108 17.229,-6.082 26.042,-7.743 12.553,-2.365 25.299,-3.687 38.041,-4.478 27.382,-1.699 55.469,-1.31 82.519,3.631 11.637,2.126 23.706,5.021 33.928,11.199 2.07,1.251 3.957,-1.99 1.893,-3.238 -20.07,-12.132 -46.568,-14.199 -69.412,-15.512 -27.746,-1.595 -56.028,-0.621 -83.467,3.981 -10.639,1.784 -21.748,3.974 -31.436,8.921 -2.15,1.098 -0.256,4.334 1.892,3.239 z"
   id="path12" />
		</g>
	</g>
	<g
   id="g16">
		<g
   id="g15">
			<path
   fill="#a8a9ad"
   d="m 230.051,243.883 c 28.076,-21.354 66.313,-31.203 99.937,-17.372 2.229,0.917 3.201,-2.709 0.997,-3.616 -34.431,-14.163 -74.066,-4.124 -102.827,17.75 -1.896,1.442 -0.03,4.7 1.893,3.238 z"
   id="path14" />
		</g>
	</g>
	
		<path
   d="M 48.385787,-8.4546125 V -24.371512 H 35.287092 v -6.589041 H 56.32439 v 25.4432237 q -4.644082,3.2945204 -10.240798,5.00132008 -5.596715,1.66710672 -11.947598,1.66710672 -13.892556,0 -21.751773,-8.0973754 -7.8195241,-8.1370681 -7.8195241,-22.6250191 0,-14.527644 7.8195241,-22.62502 7.859217,-8.137068 21.751773,-8.137068 5.795181,0 10.994966,1.428948 5.239478,1.428949 9.645403,4.20746 v 8.533999 q -4.445618,-3.770837 -9.446938,-5.676102 -5.00132,-1.905264 -10.518649,-1.905264 -10.875887,0 -16.353523,6.073031 -5.437944,6.073032 -5.437944,18.100016 0,11.987291 5.437944,18.060322 5.477636,6.0730317 16.353523,6.0730317 4.247152,0 7.581366,-0.7144743 3.334213,-0.7541673 5.993645,-2.3021949 z M 78.989103,-52.672633 v 46.0835923 h 9.685096 q 12.265141,0 17.941241,-5.5570223 5.7158,-5.557022 5.7158,-17.544313 0,-11.907905 -5.7158,-17.425235 -5.6761,-5.557022 -17.941241,-5.557022 z m -8.01799,-6.589041 h 16.472602 q 17.226765,0 25.284455,7.184436 8.05768,7.144743 8.05768,22.386862 0,15.321504 -8.09738,22.50594 Q 104.5911,0 87.443715,0 H 70.971113 Z M 173.97449,-8.4546125 V -24.371512 h -13.0987 v -6.589041 h 21.0373 v 25.4432237 q -4.64408,3.2945204 -10.2408,5.00132008 -5.59671,1.66710672 -11.9476,1.66710672 -13.89255,0 -21.75177,-8.0973754 -7.81952,-8.1370681 -7.81952,-22.6250191 0,-14.527644 7.81952,-22.62502 7.85922,-8.137068 21.75177,-8.137068 5.79518,0 10.99497,1.428948 5.23948,1.428949 9.6454,4.20746 v 8.533999 q -4.44562,-3.770837 -9.44694,-5.676102 -5.00132,-1.905264 -10.51865,-1.905264 -10.87588,0 -16.35352,6.073031 -5.43794,6.073032 -5.43794,18.100016 0,11.987291 5.43794,18.060322 5.47764,6.0730317 16.35352,6.0730317 4.24716,0 7.58137,-0.7144743 3.33421,-0.7541673 5.99365,-2.3021949 z"
   id="text16"
   style="font-size:81.2913px;font-family:ProductSans-Regular;fill:#58595b;stroke:#58595b;stroke-width:2;stroke-miterlimit:10"
   transform="translate(5.5029,310.853)"
   aria-label="GDG " />
	<path
   d="m 17.243265,-56.778691 v 24.003652 h 10.867963 q 6.033004,0 9.327622,-3.12347 3.294619,-3.12347 3.294619,-8.89975 0,-5.733492 -3.294619,-8.856962 -3.294618,-3.12347 -9.327622,-3.12347 z M 8.6002388,-63.881376 H 28.111228 q 10.739602,0 16.216371,4.877748 5.519556,4.83496 5.519556,14.205369 0,9.455984 -5.519556,14.290944 -5.476769,4.83496 -16.216371,4.83496 H 17.243265 V 0 H 8.6002388 Z m 50.5745372,15.959648 h 7.872856 V 0 h -7.872856 z m 0,-18.655245 h 7.872856 v 9.969431 h -7.872856 z m 54.896054,20.067224 v 7.444983 q -3.33741,-1.71149 -6.93154,-2.567236 -3.59413,-0.855745 -7.444979,-0.855745 -5.861854,0 -8.814175,1.797065 -2.909534,1.797065 -2.909534,5.391194 0,2.738385 2.096576,4.321514 2.096576,1.540341 8.42909,2.95232 l 2.695592,0.599022 q 8.38631,1.797065 11.89486,5.091684 3.55134,3.251831 3.55134,9.113685 0,6.6748126 -5.30561,10.568453 -5.26284,3.8936405 -14.504885,3.8936405 -3.850853,0 -8.044005,-0.77017067 -4.150364,-0.72738338 -8.771388,-2.22493743 v -8.1295789 q 4.364301,2.2677247 8.600239,3.4229806 4.235939,1.1124687 8.386303,1.1124687 5.562346,0 8.557456,-1.8826393 2.9951,-1.9254266 2.9951,-5.3911945 0,-3.209044 -2.18215,-4.920535 -2.13936,-1.71149 -9.455981,-3.294618 l -2.738384,-0.641809 q -7.316621,-1.540342 -10.568453,-4.706599 -3.251831,-3.209044 -3.251831,-8.771387 0,-6.760387 4.792172,-10.440091 4.792173,-3.679704 13.606348,-3.679704 4.364299,0 8.215149,0.641808 3.85086,0.641809 7.10269,1.925427 z m 36.88261,22.420523 q -9.54156,0 -13.22126,2.18215 -3.67971,2.18215 -3.67971,7.444983 0,4.193151 2.73839,6.6748121 2.78117,2.4388737 7.53056,2.4388737 6.54645,0 10.48287,-4.6210238 3.97922,-4.663811 3.97922,-12.365517 v -1.754278 z m 15.70292,-3.251832 V 0 h -7.87285 v -7.2738338 q -2.6956,4.3643003 -6.7176,6.46087591 -4.022,2.05378839 -9.84107,2.05378839 -7.35941,0 -11.72371,-4.1075768 -4.32151,-4.1503639 -4.32151,-11.0818997 0,-8.086792 5.39119,-12.194368 5.43399,-4.107577 16.17359,-4.107577 h 11.03911 v -0.770171 q 0,-5.433981 -3.59413,-8.386302 -3.55134,-2.995108 -10.01222,-2.995108 -4.10758,0 -8.00122,0.984107 -3.89364,0.984107 -7.48777,2.95232 v -7.273833 q 4.32152,-1.668703 8.38631,-2.481661 4.06479,-0.855745 7.91564,-0.855745 10.3973,0 15.53177,5.391194 5.13447,5.391194 5.13447,16.344732 z"
   id="text17"
   style="font-size:87.6283px;font-family:ProductSans-Regular;fill:#58595b"
   transform="matrix(0.99,0,0,1,202.0303,312.769)"
   aria-label="Pisa" />
</g>
</svg>
