<?xml version="1.0" encoding="UTF-8"?>
<svg id="Layer_2" xmlns="http://www.w3.org/2000/svg" viewBox="0 0 1000 300">
  <defs>
    <style>
      .cls-1 {
        fill: #4285f4;
      }

      .cls-2 {
        fill: #0f9d58;
      }

      .cls-3 {
        font-size: 41.55px;
      }

      .cls-4 {
        font-size: 57.13px;
      }

      .cls-5 {
        fill: #fbbc04;
      }

      .cls-6 {
        fill: #fff;
      }

      .cls-7 {
        fill: #ea4335;
      }

      .cls-8 {
        fill: #656c73;
        font-family: GoogleSansDisplay-Regular, 'Google Sans Display';
      }

      .cls-9 {
        letter-spacing: -.02em;
      }

      .cls-10 {
        letter-spacing: -.02em;
      }

      .cls-11 {
        letter-spacing: -.02em;
      }

      .cls-12 {
        letter-spacing: -.01em;
      }

      .cls-13 {
        letter-spacing: -.02em;
      }

      .cls-14 {
        letter-spacing: -.01em;
      }

      .cls-15 {
        letter-spacing: -.04em;
      }

      .cls-16 {
        letter-spacing: -.03em;
      }

      .cls-17 {
        letter-spacing: 0em;
      }

      .cls-18 {
        letter-spacing: 0em;
      }

      .cls-19 {
        letter-spacing: 0em;
      }

      .cls-20 {
        letter-spacing: -.01em;
      }

      .cls-21 {
        letter-spacing: 0em;
      }

      .cls-22 {
        letter-spacing: 0em;
      }

      .cls-23 {
        letter-spacing: 0em;
      }
    </style>
  </defs>
  <g id="Layer_1-2" data-name="Layer_1">
    <g>
      <rect class="cls-6" width="1000" height="300"/>
      <g>
        <text class="cls-8" transform="translate(173.45 214.78)"><tspan class="cls-4"><tspan class="cls-14" x="0" y="0">G</tspan><tspan class="cls-20" x="45.47" y="0">oo</tspan><tspan class="cls-11" x="110.26" y="0">g</tspan><tspan class="cls-12" x="142.54" y="0">l</tspan><tspan class="cls-20" x="153.62" y="0">e </tspan><tspan class="cls-17" x="197.15" y="0">D</tspan><tspan class="cls-10" x="236.97" y="0">e</tspan><tspan class="cls-19" x="267.25" y="0">v</tspan><tspan class="cls-20" x="295.64" y="0">e</tspan><tspan class="cls-14" x="326.49" y="0">lo</tspan><tspan class="cls-23" x="369.68" y="0">p</tspan><tspan class="cls-20" x="403.72" y="0">er</tspan><tspan class="cls-16" x="454.91" y="0"> </tspan><tspan class="cls-22" x="466.45" y="0">G</tspan><tspan class="cls-15" x="512.21" y="0">r</tspan><tspan class="cls-12" x="530.83" y="0">o</tspan><tspan class="cls-20" x="562.94" y="0">u</tspan><tspan class="cls-13" x="594.02" y="0">p</tspan><tspan class="cls-20" x="626.64" y="0">s</tspan></tspan><tspan class="cls-3"><tspan class="cls-9" x="254.98" y="65.45">V</tspan><tspan class="cls-18" x="280.32" y="65.45">ic</tspan><tspan x="311.4" y="65.45">en</tspan><tspan class="cls-21" x="357.27" y="65.45">z</tspan><tspan x="376.42" y="65.45">a</tspan></tspan></text>
        <g>
          <path class="cls-7" d="M440.64,64.04l36.63-21.15c8.62-4.98,11.57-16,6.6-24.62-4.98-8.62-16-11.57-24.62-6.6l-63.29,36.54,44.68,15.82Z"/>
          <path class="cls-1" d="M468.24,118.39c6.23,0,12.29-3.23,15.62-9.01,4.98-8.62,2.02-19.64-6.6-24.62l-63.29-36.54c-8.62-4.98-19.64-2.02-24.62,6.6-4.98,8.62-2.02,19.64,6.6,24.62l63.29,36.54c2.84,1.64,5.94,2.42,8.99,2.42Z"/>
          <path class="cls-5" d="M531.19,118.39c3.06,0,6.16-.78,8.99-2.42l63.29-36.54-44.11-16.15-37.19,21.47c-8.62,4.98-11.57,16-6.6,24.62,3.34,5.78,9.4,9.01,15.62,9.01Z"/>
          <path class="cls-2" d="M594.44,81.85c6.23,0,12.29-3.23,15.62-9.01,4.98-8.62,2.02-19.64-6.6-24.62l-63.29-36.54c-8.62-4.98-19.64-2.02-24.62,6.6-4.98,8.62-2.02,19.64,6.6,24.62l63.29,36.54c2.84,1.64,5.94,2.42,8.99,2.42Z"/>
        </g>
      </g>
    </g>
  </g>
</svg>